<svg width="282" height="236" viewBox="0 0 282 236" fill="none" xmlns="http://www.w3.org/2000/svg">
<path d="M0.500006 2.19999C0.100006 3.49999 6.10203e-06 20.3 0.200006 39.6L0.500006 74.5L3.20001 79.1C4.70001 81.6 7.70001 85.3 9.90001 87.3L14 91L14.2 159.1L14.5 227.1L18.8 231.2C23 235.1 23.4 235.2 28.6 234.8C35.1 234.2 39.4 230.8 41 224.9C41.7 222.5 41.9 199.8 41.8 163C41.5 112.7 41.3 104.8 40 104C37.9 102.7 37.4 102.8 35.6 104.6C34.2 106 34 112.9 34 165.5V224.9L31.8 226.4C28.5 228.7 25.4 228.3 23.1 225.4C21 222.8 21 222 21 154.4V86.1L18.8 84.9C15.4 83.2 11 78.9 9.20001 75.5C7.70001 72.9 7.40001 67.6 7.00001 36.5L6.50001 0.49999L3.80001 0.19999C1.60001 -0.10001 0.900006 0.39999 0.500006 2.19999Z" fill="#826CFF"/>
<path d="M16.6 1.50002C15.7 4.00002 15.9 59.3 16.9 60.8C17.3 61.6 18.8 62 20.1 61.8L22.5 61.5V31V0.500017L19.9 0.200017C18.2 1.73889e-05 17 0.500017 16.6 1.50002Z" fill="#826CFF"/>
<path d="M33.2 1.20002C31.8 2.60002 31.4 58.6 32.9 60.8C33.3 61.6 34.8 62 36.1 61.8L38.5 61.5V31C38.5 1.20001 38.5 0.500017 36.5 0.200017C35.4 0.100017 33.9 0.500017 33.2 1.20002Z" fill="#826CFF"/>
<path d="M49.2 1.19999C48.3 2.09999 48 11.5 48 37.2C48 77.3 48 77.1 39 83.6C33.8 87.4 33 88.9 35.5 91C39.2 94.1 49.1 86.6 53.1 77.7C55.5 72.6 55.5 71.8 55.8 37.7C56 12 55.8 2.49999 54.9 1.39999C53.5 -0.300014 50.8 -0.400014 49.2 1.19999Z" fill="#826CFF"/>
<path d="M121.6 1.5C103.7 5.2 87.2 12.7 72.5 23.7L63.5 30.5L63.2 35.9L62.9 41.3L68.2 36.5C82 24.1 99 14.7 115.7 10.3C127.7 7.2 147.6 6.1 160.1 7.9C183.2 11.3 205.7 22.9 222.8 40.1L231 48.5V43.1C231 38 230.7 37.4 226.5 33.3C210.9 18.4 193.7 8.7 173.1 3.3C164.9 1.1 160.9 0.699999 146 0.399999C133.7 0.199999 126.5 0.499999 121.6 1.5Z" fill="#826CFF"/>
<path d="M267.8 1.39998C257.9 4.89998 249.3 12.6 244.4 22.2C238.9 33 238.7 34.5 238.3 76.5C237.8 116.9 238.2 121 241.8 121C245.9 121 246 120.2 246 79C246 37.2 246.3 34.2 250.9 25.2C255.2 16.8 264 9.49998 272.3 7.59998L275 6.99998V114.8C275 222.5 275 222.7 272.9 225.4C270.4 228.5 266.8 228.8 264 226C262.1 224.1 262 222.7 262 176.6C262 134.1 261.8 129 260.4 127.5C259.5 126.6 258.1 126.1 257.3 126.4C256.5 126.7 255.6 127 255.4 127C255.2 127 255 149.1 255 176C255 230.2 254.9 229.1 261.3 233C267.9 237.1 277.1 234.4 280.4 227.6C281.8 224.5 282 213.2 282 114.3V4.29998L279.7 2.19998C277.1 -0.300022 273.3 -0.500022 267.8 1.39998Z" fill="#826CFF"/>
<path d="M131.2 39.1C99.8 44.3 73.5 69.2 66.6 99.9C64.2 110.3 64.4 126.3 67 136.5C77 176.6 116.6 202.6 156.9 195.6C179.1 191.7 197.6 179.6 209.9 160.9C237.2 119.4 219.9 63.4 173.8 44.2C161 38.9 144.5 36.9 131.2 39.1ZM163.2 48.2C177 51.8 192 61.9 200.7 73.5C211 87.2 215.4 100.2 215.5 117C215.5 130 214.2 136.3 209.4 146.8C197.3 173.4 172.8 189.3 144 189.3C131.2 189.4 123.7 187.6 111.5 181.6C87.1 169.6 72 145 72 117.5C72 82 98.3 51.4 133.5 46.1C141.6 44.8 153.8 45.7 163.2 48.2Z" fill="#826CFF"/>
<path d="M242.2 168C232 188.3 214.2 206.1 193.6 216.3C175.1 225.5 159.9 228.6 138.1 227.7C117 226.8 99.3 221.1 81.8 209.3C72.9 203.3 59.9 190.6 54 182.1L49.5 175.7L49.2 180.5C49 183.2 49.1 186.4 49.5 187.7C50.4 191.3 68.4 208.9 77.4 215C110.3 237 151.3 241.5 187.7 227C209 218.5 229 202.4 241.5 183.5L247.1 175.2L246.8 167.3L246.5 159.5L242.2 168Z" fill="#826CFF"/>
</svg>
